<?xml version="1.0" encoding="UTF-8"?>
<svg width="44px" height="44px" viewBox="0 0 44 44" version="1.1" xmlns="http://www.w3.org/2000/svg" xmlns:xlink="http://www.w3.org/1999/xlink">
    <!-- Generator: Sketch 47.1 (45422) - http://www.bohemiancoding.com/sketch -->
    <title>Group 2</title>
    <desc>Created with Sketch.</desc>
    <defs></defs>
    <g id="Page-1" stroke="none" stroke-width="1" fill="none" fill-rule="evenodd">
        <g id="OS_vertical_message" transform="translate(-29.000000, -24.000000)">
            <g id="Group-2" transform="translate(28.000000, 22.000000)">
                <g id="Group" transform="translate(22.355469, 24.253906) scale(1, -1) rotate(90.000000) translate(-22.355469, -24.253906) translate(0.855469, 2.253906)" fill="#85B7E1">
                    <path d="M41.7492453,38.2029036 C41.7492453,34.4337796 41.7492453,31.9558366 41.7492453,30.7690746 C41.7492453,30.2130426 41.7492453,29.3789948 41.7492453,28.2669309 C41.7492453,28.1703836 41.6432512,28.0868343 41.43126,28.0162805 C41.2192687,27.9457267 40.9682301,27.9104503 40.6781368,27.9104503 L23.5404004,27.9104503 C23.250307,27.9104503 22.9992685,27.9457267 22.7872772,28.0162805 C22.5752859,28.0868343 22.4692918,28.1703836 22.4692918,28.2669309 C22.4692918,29.3715346 22.4692918,30.1999874 22.4692918,30.7522892 C22.4692918,31.9427813 22.4692918,34.2048171 22.4692918,37.5383966 C22.4692918,37.6349439 22.5752859,37.4678428 22.7872772,37.5383966 C22.9992685,37.6089504 23.250307,37.5383966 23.5404004,37.5383966 L40.6781368,38.2029036 C40.6781368,39.939823 41.2351629,37.6089504 41.4471542,37.5383966 C41.6591455,37.4678428 41.7492453,38.2994509 41.7492453,38.2029036 Z M35.3225941,24.1615705 C35.3225941,23.8045325 35.1440778,23.6260162 34.7870399,23.6260162 L29.4314973,23.6260162 C29.0744593,23.6260162 28.895943,23.8045325 28.895943,24.1615705 C28.895943,24.5186084 29.0744593,24.6971247 29.4314973,24.6971247 L34.7870399,24.6971247 C35.1440778,24.6971247 35.3225941,24.5186084 35.3225941,24.1615705 Z M44.9625709,23.6260162 L44.9625709,41.0262587 L41.8332903,37.3656887 L19.2559663,37.1137616 L19.2559663,23.6260162 C19.2559663,22.4656429 19.6799425,21.4614886 20.5279076,20.6135235 C21.3758728,19.7655583 22.380027,19.3415821 23.5404004,19.3415821 L40.6781368,19.3415821 C41.8385101,19.3415821 42.8426643,19.7655583 43.6906295,20.6135235 C44.5385947,21.4614886 44.9625709,22.4656429 44.9625709,23.6260162 Z" id="" transform="translate(32.109269, 30.183920) rotate(90.000000) translate(-32.109269, -30.183920) "></path>
                    <path d="M15.6383395,38.7527886 C15.6383395,38.0163978 15.3761437,37.3860121 14.8517441,36.8616126 C14.3273446,36.3372131 13.6969589,36.0750173 12.9605682,36.0750173 C12.2241774,36.0750173 11.5937917,36.3372131 11.0693922,36.8616126 C10.5449927,37.3860121 10.2827968,38.0163978 10.2827968,38.7527886 C10.2827968,39.4891794 10.5449927,40.1195651 11.0693922,40.6439646 C11.5937917,41.1683641 12.2241774,41.4305599 12.9605682,41.4305599 C13.6969589,41.4305599 14.3273446,41.1683641 14.8517441,40.6439646 C15.3761437,40.1195651 15.6383395,39.4891794 15.6383395,38.7527886 Z M22.6005449,33.397246 L22.6005449,9.83285844 C22.6005449,9.54276509 22.4945508,9.29172654 22.2825595,9.07973526 C22.0705683,8.86774397 21.8195297,8.76174991 21.5294364,8.76174991 L4.39169995,8.76174991 C4.10160661,8.76174991 3.85056806,8.86774397 3.63857677,9.07973526 C3.42658548,9.29172654 3.32059142,9.54276509 3.32059142,9.83285844 L3.32059142,33.397246 C3.32059142,33.6873393 3.42658548,33.9383779 3.63857677,34.1503692 C3.85056806,34.3623605 4.10160661,34.4683545 4.39169995,34.4683545 L21.5294364,34.4683545 C21.8195297,34.4683545 22.0705683,34.3623605 22.2825595,34.1503692 C22.4945508,33.9383779 22.6005449,33.6873393 22.6005449,33.397246 Z M16.1738937,5.01287007 C16.1738937,4.65583211 15.9953774,4.47731581 15.6383395,4.47731581 L10.2827968,4.47731581 C9.92575888,4.47731581 9.74724258,4.65583211 9.74724258,5.01287007 C9.74724258,5.36990803 9.92575888,5.54842433 10.2827968,5.54842433 L15.6383395,5.54842433 C15.9953774,5.54842433 16.1738937,5.36990803 16.1738937,5.01287007 Z M25.8138705,4.47731581 L25.8138705,38.7527886 C25.8138705,39.913162 25.3898942,40.9173162 24.5419291,41.7652814 C23.6939639,42.6132465 22.6898097,43.0372227 21.5294364,43.0372227 L4.39169995,43.0372227 C3.23132658,43.0372227 2.22717238,42.6132465 1.37920722,41.7652814 C0.531242065,40.9173162 0.107265847,39.913162 0.107265847,38.7527886 L0.107265847,4.47731581 C0.107265847,3.31694244 0.531242065,2.31278824 1.37920722,1.46482308 C2.22717238,0.616857924 3.23132658,0.192881706 4.39169995,0.192881706 L21.5294364,0.192881706 C22.6898097,0.192881706 23.6939639,0.616857924 24.5419291,1.46482308 C25.3898942,2.31278824 25.8138705,3.31694244 25.8138705,4.47731581 Z" id=""></path>
                </g>
                <path d="M44.4066999,5.97693213 L44.4066999,10.4419683 C44.4066999,10.6147235 44.3435787,10.764221 44.2173345,10.8904652 C44.0910903,11.0167094 43.9415928,11.0798306 43.7688376,11.0798306 L39.3038015,11.0798306 C39.0247353,11.0798306 38.8287275,10.9469439 38.7157722,10.6811666 C38.6028168,10.4220338 38.6493272,10.1928043 38.8553046,9.99347132 L40.2306951,8.61808073 C39.2473192,7.70779352 38.0878832,7.25265674 36.7523523,7.25265674 C36.0613313,7.25265674 35.4018813,7.38720447 34.7739825,7.65630398 C34.1460836,7.92540348 33.6029095,8.28918069 33.1444436,8.74764651 C32.6859778,9.20611233 32.3222006,9.74928652 32.0531011,10.3771854 C31.7840016,11.0050842 31.8464446,12.0461235 31.576525,12.736556 C31.3066055,13.4269884 29.2688865,13.5293301 29.0980046,12.3555552 C29.0282879,11.8766763 29.3006568,10.3290182 29.7059672,9.38550881 C30.1112775,8.44199944 30.6561128,7.6280687 31.3404893,6.94369219 C32.0248658,6.25931567 32.8387966,5.7144804 33.7823059,5.30917004 C34.7258153,4.90385967 35.7158209,4.70120753 36.7523523,4.70120753 C37.7290838,4.70120753 38.6742401,4.88558776 39.5878495,5.25435374 C40.501459,5.62311973 41.3137286,6.14303875 42.0246829,6.8141264 L43.3203407,5.5284352 C43.5130292,5.3224578 43.7455808,5.27594748 44.0180026,5.38890282 C44.2771354,5.50185817 44.4066999,5.69786598 44.4066999,5.97693213 Z" id="" fill="#6BAFE1" transform="translate(36.746908, 8.975141) rotate(59.000000) translate(-36.746908, -8.975141) "></path>
            </g>
        </g>
    </g>
</svg>